<svg width="1411" height="684" viewBox="0 0 1411 684" fill="none" xmlns="http://www.w3.org/2000/svg">
<path d="M2 2C2 51.5329 38.4422 78.1133 85.0142 104.078C118.902 122.97 191.927 163.595 236.5 144.44C248.441 139.308 255.626 128.819 263.767 120.223C264.692 119.246 280.997 103.233 281.34 103.557C290.683 112.39 293.14 130.355 300.427 140.794C324.424 175.17 361.898 201.866 401.619 222.04C475.63 259.628 569.336 264.575 639.149 306.931C659.006 318.978 667.059 338.948 671.567 358.751C684.288 414.634 682.046 472.956 684.898 529.575C686.774 566.823 688.067 606.35 697.926 642.85C709.701 686.448 757.037 684.77 800.936 679.046C1030.88 649.06 1234.2 524.366 1409 400.415" stroke="#F3373D" stroke-width="3" stroke-linecap="round"/>
</svg>
