<svg width="61" height="26" viewBox="0 0 61 26" fill="none" xmlns="http://www.w3.org/2000/svg">
<path d="M37.8523 18.7024C41.7726 18.5231 45.7117 18.4458 49.6247 18.1502C52.8753 17.9046 56.7002 16.9314 58.1689 13.6407C59.0993 11.556 58.8763 8.87782 57.7978 6.90205C56.1402 3.86524 52.562 2.51612 49.3262 1.84183C44.4639 0.82857 39.4028 1.33058 34.4815 1.3866C30.2748 1.4345 25.9973 1.37543 21.8106 1.85471C19.6588 2.10104 17.5309 2.57763 15.3858 2.88598C14.0217 3.08208 12.6006 3.13102 11.2604 3.45729C9.44665 3.89883 7.85615 4.56049 6.28958 5.56308C5.54354 6.04054 4.83877 6.56989 4.1079 7.06824C3.602 7.41319 3.01177 7.57406 2.51142 7.92047C1.64462 8.52059 1.15479 9.5193 1.40391 10.601C1.61454 11.5156 2.50184 12.2551 3.11663 12.9021C4.23917 14.0834 5.41069 15.2987 6.72334 16.2715C9.99112 18.6934 13.6878 19.2796 17.6458 19.7517C19.7915 20.0076 21.9112 20.3729 24.0485 20.6834C26.1198 20.9842 28.1807 21.0635 30.2647 21.2062C32.4977 21.359 34.7324 21.4869 36.9724 21.4699C39.0341 21.4543 41.1882 21.4623 43.1626 20.8112C45.2535 20.1216 47.1779 19.1446 49.0141 17.9415C50.2712 17.1179 51.6588 16.3128 52.6324 15.1462C54.0297 13.472 53.6334 11.2149 53.5203 9.19182C53.4011 7.05917 51.9818 5.79548 50.2277 4.74357C49.0007 4.0077 47.4455 3.63338 46.0774 3.24271C44.3941 2.76201 42.69 2.46334 40.9416 2.35048C33.7056 1.88339 26.4267 2.19325 19.1923 2.52407C16.9973 2.62444 14.6196 2.48248 12.4708 3.02624C10.8317 3.44101 9.11424 3.93547 7.5982 4.68227C5.61742 5.65801 3.61935 7.7802 2.72268 9.7893C1.86045 11.7213 2.59993 13.6034 3.72738 15.2536C4.50486 16.3915 5.34044 17.6628 6.44832 18.5104C7.80368 19.5474 9.44057 20.2992 11.0428 20.8607C13.611 21.7606 16.216 22.3405 18.8906 22.8255C21.972 23.3844 25.0644 24.0981 28.1872 24.3763C35.167 24.9981 42.047 24.8975 49.038 24.5778C51.1303 24.4821 53.2945 24.5752 55.1831 23.5454C56.515 22.8191 57.3888 21.8255 58.0622 20.4777C58.9682 18.6641 59.5851 16.6511 59.8783 14.6479C60.0151 13.7136 60.2582 12.2106 59.8515 11.3096C59.3816 10.2685 58.1072 9.57408 57.187 8.98241C56.3419 8.43892 55.3197 7.92349 54.3331 7.70752C52.6799 7.34566 51.0342 6.98647 49.3785 6.65393" stroke="#E7161C" stroke-linecap="round"/>
</svg>
